<svg id="レイヤー_1のコピー_5" data-name="レイヤー 1のコピー 5" xmlns="http://www.w3.org/2000/svg" viewBox="0 0 149.04 27.36"><defs><style>.cls-1{fill:none;}.cls-2{fill:#333;}</style></defs><path class="cls-1" d="M374,313.36H225V286H374Zm-81.18-22h-2.52c-.24,0-.24,0-.24.25v2.46c0,.37-.05.41-.42.41h-4.53c-.36,0-.42-.05-.41-.41,0-.78,0-1.56,0-2.34,0-.32.05-.31-.29-.31h-3.09c-.48,0-.49,0-.48.49,0,.75,0,1.5,0,2.25,0,.3,0,.32-.31.32h-2c-.17,0-.23,0-.23.21q0,1.77,0,3.54c0,.18.06.22.22.22h2c.32,0,.36,0,.37.35,0,.47,0,.94,0,1.41s0,.87,0,1.31c0,.19.06.23.24.23h3.36c.24,0,.24,0,.25-.25,0-.89,0-1.78,0-2.67,0-.31.07-.38.39-.38h4.61c.31,0,.34,0,.34.34,0,1.19,0,2.38,0,3.57a2.19,2.19,0,0,1,0,.36,3.42,3.42,0,0,1-3.17,2.56c-.92,0-1.84,0-2.76,0-.27,0-.27,0-.27.27,0,1,0,2,0,3.06,0,.35-.06.33.31.33l4.47,0a9.08,9.08,0,0,0,2-.26,6.2,6.2,0,0,0,3.14-1.76,7.34,7.34,0,0,0,1.81-4.71c.08-1.13,0-2.28,0-3.42,0-.31,0-.31.32-.31h2.16c.16,0,.22,0,.22-.22q0-1.77,0-3.54c0-.17-.06-.21-.23-.21h-2.15c-.32,0-.32,0-.32-.31v-2.55c0-.25,0-.26-.27-.26Zm44.79,5.47H328.8c-.42,0-.36-.06-.36.37v3c0,.41-.05.36.34.36H337a1.49,1.49,0,0,1,.47.07.36.36,0,0,1,.18.24,3,3,0,0,1,0,.95c-.08.26-.14.52-.24.77a3.17,3.17,0,0,1-3.17,2.23H330c-.24,0-.24,0-.24.25v3.18c0,.4-.05.35.35.35,1.42,0,2.85,0,4.28,0a11.77,11.77,0,0,0,4-.48,6.1,6.1,0,0,0,2.38-1.4A6,6,0,0,0,342.3,304a11.57,11.57,0,0,0,.42-3c0-.26.08-.36.34-.39h3.54c.25,0,.26,0,.26-.24v-3.27c0-.16,0-.24-.22-.22a1.2,1.2,0,0,1-.27,0Zm21.26,11.52h3.87a16.34,16.34,0,0,0,2.42-.11,8.25,8.25,0,0,0,2.49-.7,5.33,5.33,0,0,0,3.16-4.76c.06-.78,0-1.58,0-2.37v-6.09c0-.31,0-.32-.32-.32h-4.83c-.25,0-.25,0-.25.24v6.43c0,.41,0,.84-.06,1.25a2.92,2.92,0,0,1-2.24,2.61,6.29,6.29,0,0,1-1.61.16H353.4c-.33,0-.3,0-.3.28v3.09c0,.33,0,.29.29.29Zm-49.05.36H311c1.49,0,3,0,4.46-.07a7.89,7.89,0,0,0,2.62-.57,6,6,0,0,0,3.49-3.89,8.52,8.52,0,0,0,.29-1.65,11.33,11.33,0,0,0,.12-1.43q0-3.22,0-6.45c0-.31,0-.28-.3-.29h-4.61c-.34,0-.31,0-.31.3,0,2.1,0,4.2,0,6.3a5.83,5.83,0,0,1-.27,1.76,3.09,3.09,0,0,1-3.22,2.38h-8.34c-.32,0-.29,0-.29.28v3c0,.31,0,.29.29.29ZM339,291.06l-.14,0h-9.6c-.17,0-.22.06-.22.22,0,.62,0,1.24,0,1.86s0,1,0,1.44c0,.15,0,.23.19.21H339A3,3,0,0,1,339,291.06Zm-30.16,3.87H313c.32,0,.29,0,.29-.29v-3.15c0-.27,0-.28-.27-.28h-8.4c-.27,0-.27,0-.27.28v3.15c0,.32,0,.29.28.29Zm48.64-.47h4.26c.24,0,.25,0,.25-.24v-2.94c0-.49,0-.49-.49-.49h-8.25c-.26,0-.26,0-.26.26v3.12c0,.29-.05.28.29.28ZM235.65,303l.12.07a.53.53,0,0,1,.11.15.74.74,0,0,0,.94.49h.06c.64,0,.64,0,.59-.63V303a1.71,1.71,0,0,0-.11-.14,2.53,2.53,0,0,1-.42-.37,9.2,9.2,0,0,1-1-2.07,2.83,2.83,0,0,1-.14-.52c0-.2,0-.22.19-.22h1c.16,0,.21-.06.21-.21s0-.34,0-.51,0-.19-.19-.19H236c-.37,0-.37,0-.4-.38v0c0-.4.05-.47.44-.48h1c.13,0,.18-.05.18-.18a4.86,4.86,0,0,1,0-.54c0-.14,0-.19-.19-.19h-1c-.29,0-.38-.07-.42-.35a2.26,2.26,0,0,1,0-.45c0-.1,0-.15-.14-.15h-1.08c-.12,0-.16.05-.16.17a3.35,3.35,0,0,1-.07.53c0,.22-.13.26-.45.28a.28.28,0,0,1-.32-.25,4,4,0,0,1-.11-.58c0-.12-.05-.18-.16-.15s-.41-.12-.57.1v0a4.93,4.93,0,0,0-.13,1.58c0,.16.08.2.22.2l1.14,0c.32,0,.38.07.4.39a1.23,1.23,0,0,1,0,.27.22.22,0,0,1-.26.21h-.75c-.73,0-.73,0-.68.74,0,.15.07.21.22.21s.56,0,.84,0,.23,0,.2.22a12.91,12.91,0,0,1-.78,2.57.32.32,0,0,1-.09.15c-.1.08-.21.19-.32.19s-.27.12-.28.3,0,.24,0,.36.08.25.26.24h.78a.28.28,0,0,0,.3-.19c.09-.19.2-.37.3-.55s.08-.08.12-.07.08.06.08.1a1.84,1.84,0,0,1,0,.33c0,.36,0,.72,0,1.08,0,.14,0,.22.21.21l1,0c.18,0,.25-.06.25-.25s0-.68,0-1C235.59,303.24,235.63,303.12,235.65,303Zm5.49-6.37v0h-1.83c-.17,0-.23.06-.22.23s0,.44,0,.66,0,.31.3.31h4.08c.38,0,.49.07.59.38.21.7.41,1.4.62,2.09.39,1.33.8,2.65,1.19,4,0,.19.13.28.35.26s.7,0,1.05,0c.62,0,.62,0,.64-.63,0,0,0-.06,0-.08s-.06-.11-.1-.12a.46.46,0,0,1-.38-.34q-.18-.48-.33-1l-1.22-4.13c-.08-.27,0-.41.26-.45a.72.72,0,0,1,.21,0l1.34,0c.17,0,.23,0,.22-.22,0-.36,0-.72,0-1.08,0-.56,0-.55-.56-.57-.19,0-.28,0-.31.24-.05.37-.22.49-.6.48h-.57c-.36,0-.44-.06-.55-.4a1.21,1.21,0,0,1-.05-.18c0-.11-.08-.14-.18-.14h-1.38c-.17,0-.21.07-.21.21a.49.49,0,0,1,0,.12c0,.28-.08.34-.36.38a1.51,1.51,0,0,1-.3,0Zm20.37,1.1h.93c.35,0,.43.13.29.45a1.62,1.62,0,0,1-.1.18c-.22.4-.43.79-.66,1.18-.39.64-.78,1.28-1.19,1.9a1.1,1.1,0,0,1-.4.34c-.09.06-.27,0-.32.12s0,.24,0,.37a1.09,1.09,0,0,0,0,.18c0,.3.11.41.41.42l.54,0a.81.81,0,0,0,.79-.31c.1-.14.27-.08.31.1a1.47,1.47,0,0,1,0,.21c0,.4,0,.81,0,1.22,0,.25,0,.25.23.25h1.29c.28,0,.28,0,.29-.27,0-.74,0-1.48.05-2.22a2,2,0,0,1,.05-.35c.07-.18.17-.21.32-.08s.22.2.34.3a.67.67,0,0,0,.17.08.47.47,0,0,0,.07-.17q0-.46,0-.93a.36.36,0,0,0-.11-.23c-.22-.25-.44-.49-.67-.73a.65.65,0,0,1-.11-.93,6.82,6.82,0,0,0,.39-.64,1,1,0,0,1,.39-.44.27.27,0,0,0,.11-.18c0-.21,0-.42,0-.63s-.05-.15-.15-.14h-.42c-.23,0-.31-.09-.32-.33s0-.26,0-.39,0-.23-.25-.23H262.6c-.46,0-.46,0-.47.46s-.11.48-.48.49h-1.11c-.15,0-.22,0-.21.21a5.23,5.23,0,0,1,0,.56c0,.15.05.2.19.19Zm3.54.58a.13.13,0,0,0,0,.07c0,.21,0,.42,0,.63,0,.44,0,.44.43.45h.09c.33,0,.44.14.44.47,0,.9,0,1.8,0,2.7a.28.28,0,0,1,0,.09c0,.26-.08.33-.34.34s-.3,0-.45,0-.17.06-.17.18c0,.3,0,.61,0,.9s.06.23.23.22.44,0,.66,0h2.88c.25,0,.25,0,.25-.27s0-.54,0-.81,0-.26-.24-.23h-.3c-.23,0-.32-.1-.35-.33v-.18c0-.88,0-1.76,0-2.64,0-.31.1-.42.39-.45s.35,0,.42-.05,0-.29,0-.44v-.21c0-.53,0-.53-.5-.53-.22,0-.29,0-.34-.26a1.11,1.11,0,0,1,0-.26c0-.55,0-1.1,0-1.65,0-.25,0-.26-.24-.26h-1.65c-.27,0-.27,0-.27.29v1.56c0,.46-.11.58-.57.62Zm-6.79,6.08c-.27-.7-.5-1.31-.72-1.93-.05-.14-.15-.14-.26-.14-.47,0-.94,0-1.41,0-.21,0-.26.08-.27.26s-.08.35-.4.41l-.93.2-1.23.26c-.29.06-.43-.07-.33-.36a8.33,8.33,0,0,1,.37-.94.53.53,0,0,1,.5-.32h.72l3.6,0c.18,0,.43.06.51,0s.06-.35.08-.54,0-.18,0-.27-.05-.2-.19-.19h-8.58c-.08,0-.2,0-.2.1s0,.52,0,.78a.17.17,0,0,0,.19.18l1.17,0c.25,0,.34.1.3.35a1.23,1.23,0,0,1-.11.34c-.1.24-.24.47-.32.71a.68.68,0,0,1-.74.47c-.63,0-.5,0-.52.55,0,.19,0,.25.24.25H251a8.07,8.07,0,0,0,1-.07c.33-.05.65-.16,1-.23l2.49-.48c.56-.1.74,0,1,.47a.56.56,0,0,0,.05.08c.06,0,.12.11.19.11ZM229.6,297v0H229c-.12,0-.19,0-.18.17s0,.4,0,.6.06.16.18.16h.84a1.36,1.36,0,0,1,.29,0c.14,0,.21.11.16.26a1.16,1.16,0,0,0,0,.18c-.4,1.35-.79,2.7-1.19,4a.68.68,0,0,1-.47.5c-.1,0-.25,0-.29.09s0,.22,0,.33v.06c0,.29,0,.28.3.28h.6c.62,0,.47.12.67-.51.09-.29.2-.58.32-.87,0,0,.09-.06.14-.09s.07.1.08.15c0,.52,0,1,0,1.55a3.84,3.84,0,0,0,0,.48c0,.15.06.26.25.25s.5,0,.75,0,.25,0,.25-.25c0-.89,0-1.78,0-2.67a2.83,2.83,0,0,1,.05-.5c0-.14.11-.28.24-.28.29,0,.24-.18.24-.35a1.82,1.82,0,0,1,0-.33.58.58,0,0,0-.28-.59.41.41,0,0,1-.21-.4c0-.38,0-.76.08-1.14,0-.06.1-.12.16-.17s.19-.12.24-.21A.58.58,0,0,0,232,297a.37.37,0,0,1-.21-.38c0-.15,0-.3,0-.45s-.05-.16-.16-.16h-.9c-.15,0-.2.05-.2.21a4.48,4.48,0,0,1-.06.62.23.23,0,0,1-.28.2Zm109.21-4.14a2.29,2.29,0,1,0,2.27-2.32A2.27,2.27,0,0,0,338.81,292.88Zm4.61-.08a2.33,2.33,0,0,0,2.28,2.31,2.29,2.29,0,1,0,0-4.57A2.36,2.36,0,0,0,343.42,292.8Zm-99.77,10.05-1,.18a.36.36,0,0,1-.49-.27.66.66,0,0,1,0-.34c0-.79.06-1.58.09-2.37,0-.27,0-.31.29-.38a1.13,1.13,0,0,1,.32-.05h.66c.16,0,.24,0,.23-.21a2.55,2.55,0,0,1,0-.48c0-.18-.06-.22-.22-.22q-2.1,0-4.2,0c-.15,0-.23,0-.22.2s0,.42,0,.63,0,.14.14.14.44,0,.66,0,.54.14.53.55c0,.79,0,1.58,0,2.37s-.11.84-.8,1c-.52.12-.52.12-.52.64,0,.11,0,.22,0,.33s0,.19.18.16l.5-.08,2.34-.46,1.35-.29c.1,0,.19,0,.19-.17Zm13.59-4.52v0h.66c.18,0,.44.06.52,0s.07-.35.08-.53,0-.26-.25-.28a2.18,2.18,0,0,1-.94-.17,18.48,18.48,0,0,1-2.34-1.39.63.63,0,0,0-.3-.1c-.4,0-.8,0-1.2,0a.76.76,0,0,0-.39.1l-2.4,1.36a2.47,2.47,0,0,1-.62.18,1.22,1.22,0,0,1-.33,0c-.16,0-.21.06-.2.21s0,.3,0,.45,0,.29.28.28c.53,0,1.06,0,1.59,0a2.38,2.38,0,0,0,1.35-.4l.69-.43a.86.86,0,0,1,1.1,0,7.94,7.94,0,0,0,.78.5,1.86,1.86,0,0,0,1,.29Zm-3.3,1.64v0H258c.11,0,.17,0,.17-.15s0-.44,0-.66-.06-.18-.18-.16h-7.52c-.22,0-.43,0-.65.05,0,.22-.05.43-.05.65s0,.32.3.32Z" transform="translate(-225 -286)"/><path class="cls-2" d="M292.86,291.36h2.49c.26,0,.27,0,.27.25v2.55c0,.31,0,.31.32.32h2.15c.17,0,.23,0,.23.22q0,1.77,0,3.54c0,.17-.06.21-.22.21h-2.16c-.32,0-.32,0-.32.31,0,1.14.06,2.29,0,3.42a7.32,7.32,0,0,1-1.81,4.71,6.2,6.2,0,0,1-3.14,1.76,9.08,9.08,0,0,1-2,.26l-4.47,0c-.37,0-.31,0-.31-.33,0-1,0-2,0-3.06,0-.27,0-.27.27-.27.92,0,1.84,0,2.76,0a3.42,3.42,0,0,0,3.17-2.56,2.19,2.19,0,0,0,0-.36c0-1.19,0-2.38,0-3.57,0-.31,0-.34-.34-.34h-4.61c-.32,0-.39.07-.39.38,0,.89,0,1.78,0,2.67,0,.24,0,.25-.25.25h-3.36c-.18,0-.25,0-.24-.23,0-.43,0-.87,0-1.31s0-.94,0-1.4,0-.36-.37-.36h-2c-.16,0-.22,0-.22-.21q0-1.77,0-3.54c0-.18.06-.22.23-.22h2c.29,0,.31,0,.31-.33,0-.75,0-1.5,0-2.25,0-.49,0-.49.48-.49h3.09c.34,0,.3,0,.29.32,0,.78,0,1.55,0,2.33,0,.36.05.42.41.42h4.53c.37,0,.42-.05.42-.42v-2.46c0-.24,0-.24.24-.24Z" transform="translate(-225 -286)"/><path class="cls-2" d="M337.65,296.86h8.72a1.2,1.2,0,0,0,.27,0c.18,0,.22.06.22.22v3.27c0,.23,0,.24-.26.24h-3.54c-.26,0-.34.13-.34.39a11.57,11.57,0,0,1-.42,3,6,6,0,0,1-1.57,2.72,6.1,6.1,0,0,1-2.38,1.4,11.77,11.77,0,0,1-4,.48c-1.43,0-2.86,0-4.28,0-.4,0-.35.05-.35-.35v-3.18c0-.25,0-.25.24-.25h4.2a3.17,3.17,0,0,0,3.17-2.23c.1-.25.16-.51.24-.77a3,3,0,0,0,0-.95.36.36,0,0,0-.18-.24,1.49,1.49,0,0,0-.47-.07h-8.19c-.39,0-.34.05-.34-.36v-3c0-.43-.06-.37.36-.37Z" transform="translate(-225 -286)"/><path class="cls-2" d="M358.91,308.38h-5.52c-.3,0-.29,0-.29-.29V305c0-.31,0-.28.3-.28h8.15a6.29,6.29,0,0,0,1.61-.16A2.92,2.92,0,0,0,365.4,302c0-.41.06-.84.06-1.25v-6.43c0-.23,0-.24.25-.24h4.83c.32,0,.32,0,.32.32v6.09c0,.79.05,1.59,0,2.37a5.33,5.33,0,0,1-3.16,4.76,8.25,8.25,0,0,1-2.49.7,16.34,16.34,0,0,1-2.42.11Z" transform="translate(-225 -286)"/><path class="cls-2" d="M309.86,308.71h-4.95c-.32,0-.29,0-.29-.28v-3c0-.32,0-.29.29-.29h8.34a3.1,3.1,0,0,0,3.22-2.37,5.94,5.94,0,0,0,.27-1.77c0-2.1,0-4.2,0-6.3,0-.34,0-.3.31-.3h4.61c.33,0,.3,0,.3.28q0,3.23,0,6.45a11.33,11.33,0,0,1-.12,1.43,8.39,8.39,0,0,1-.29,1.65,6,6,0,0,1-3.49,3.89,7.89,7.89,0,0,1-2.62.57c-1.48.05-3,.05-4.46.07Z" transform="translate(-225 -286)"/><path class="cls-2" d="M339,291.06a3,3,0,0,0,0,3.69h-9.75c-.16,0-.2-.06-.19-.21,0-.48,0-1,0-1.44s0-1.24,0-1.86c0-.16.05-.22.22-.22h9.6Z" transform="translate(-225 -286)"/><path class="cls-2" d="M308.83,294.91h-4.17c-.31,0-.28,0-.28-.3v-3.15c0-.27,0-.28.27-.28h8.4c.27,0,.27,0,.27.28v3.15c0,.32,0,.3-.29.3Z" transform="translate(-225 -286)"/><path class="cls-2" d="M357.47,294.46h-4.2c-.34,0-.29,0-.29-.28v-3.12c0-.25,0-.26.26-.26h8.25c.49,0,.49,0,.49.49v2.94c0,.24,0,.24-.25.24h-4.26Z" transform="translate(-225 -286)"/><path class="cls-2" d="M235.65,303c0,.14-.06.26-.07.38,0,.34,0,.68,0,1s-.07.24-.25.25l-1,0c-.17,0-.21-.07-.21-.21,0-.36,0-.72,0-1.08a1.84,1.84,0,0,0,0-.33s-.05-.1-.08-.1-.09,0-.12.07-.21.36-.3.55a.28.28,0,0,1-.3.19h-.78c-.18,0-.25-.07-.26-.24s0-.24,0-.36.06-.3.28-.3.22-.11.32-.19a.32.32,0,0,0,.09-.15,12.91,12.91,0,0,0,.78-2.57c0-.2,0-.22-.2-.22s-.56,0-.84,0-.21-.06-.22-.21c-.05-.73-.05-.73.68-.74h.75a.22.22,0,0,0,.26-.21,1.23,1.23,0,0,0,0-.27c0-.32-.08-.39-.4-.39l-1.14,0c-.14,0-.21,0-.22-.2a4.93,4.93,0,0,1,.13-1.58v0c.16-.22.38-.06.57-.1s.15,0,.16.15a4,4,0,0,0,.11.58.28.28,0,0,0,.32.25c.32,0,.41-.06.45-.28a3.35,3.35,0,0,0,.07-.53c0-.12,0-.17.16-.17h1.08c.1,0,.14.05.14.15a2.26,2.26,0,0,0,0,.45c0,.28.13.35.42.35h1c.14,0,.2,0,.19.19a4.86,4.86,0,0,0,0,.54c0,.13,0,.18-.18.18h-1c-.39,0-.46.08-.44.48v0c0,.38,0,.38.4.38h1.08c.15,0,.2.05.19.19s0,.34,0,.51-.05.22-.21.21h-1c-.21,0-.23,0-.19.22a2.83,2.83,0,0,0,.14.52,9.2,9.2,0,0,0,1,2.07,2.53,2.53,0,0,0,.42.37,1.71,1.71,0,0,1,.11.14v.06c.05.65.05.65-.59.63h-.06a.74.74,0,0,1-.94-.49.53.53,0,0,0-.11-.15Z" transform="translate(-225 -286)"/><path class="cls-2" d="M241.14,296.61h1.65a1.51,1.51,0,0,0,.3,0c.28,0,.33-.1.36-.38a.49.49,0,0,0,0-.12c0-.14,0-.21.21-.21h1.38c.1,0,.17,0,.18.14a1.21,1.21,0,0,0,.05.18c.11.34.19.4.55.4h.57c.38,0,.55-.11.6-.48,0-.22.12-.25.31-.24.54,0,.54,0,.56.57,0,.36,0,.72,0,1.08,0,.17,0,.22-.22.22l-1.34,0a.72.72,0,0,0-.21,0c-.26,0-.34.18-.26.45l1.22,4.13q.15.48.33,1a.46.46,0,0,0,.38.34s.07.07.1.12,0,.05,0,.08c0,.63,0,.63-.64.63-.35,0-.71,0-1.05,0s-.3-.07-.35-.26c-.39-1.33-.8-2.65-1.19-4-.21-.69-.41-1.39-.62-2.09-.1-.31-.21-.38-.59-.38h-4.08c-.33,0-.3,0-.3-.31s0-.44,0-.66,0-.23.22-.23h1.83Z" transform="translate(-225 -286)"/><path class="cls-2" d="M261.51,297.71h-1c-.14,0-.19,0-.19-.19a5.23,5.23,0,0,0,0-.56c0-.17.06-.21.21-.21h1.11c.37,0,.48-.12.48-.49s0-.45.47-.46h1.14c.24,0,.24,0,.25.23s0,.26,0,.39.09.32.32.33h.42c.1,0,.15,0,.15.14s0,.42,0,.63a.27.27,0,0,1-.11.18,1,1,0,0,0-.39.44,6.82,6.82,0,0,1-.39.64.65.65,0,0,0,.11.93c.23.24.45.48.67.73a.36.36,0,0,1,.11.23q0,.46,0,.93a.47.47,0,0,1-.07.17.67.67,0,0,1-.17-.08c-.12-.1-.22-.21-.34-.3s-.25-.1-.32.08a2,2,0,0,0-.05.35c0,.74,0,1.48-.05,2.22,0,.26,0,.27-.29.27h-1.29c-.23,0-.23,0-.23-.25,0-.41,0-.82,0-1.22a1.47,1.47,0,0,0,0-.21c0-.18-.21-.24-.31-.1a.81.81,0,0,1-.79.31l-.54,0c-.3,0-.41-.12-.41-.42a1.09,1.09,0,0,1,0-.18c0-.13,0-.28,0-.37s.23-.06.32-.12a1.1,1.1,0,0,0,.4-.34c.41-.62.8-1.26,1.19-1.9.23-.39.44-.78.66-1.18a1.62,1.62,0,0,0,.1-.18c.14-.32.06-.44-.29-.45Z" transform="translate(-225 -286)"/><path class="cls-2" d="M265.05,298.29l.35,0c.46,0,.57-.16.57-.62v-1.56c0-.29,0-.29.27-.29h1.65c.24,0,.24,0,.24.26,0,.55,0,1.1,0,1.65a1.11,1.11,0,0,0,0,.26c.05.21.12.26.34.26.51,0,.51,0,.5.53V299c0,.15,0,.35,0,.44s-.27,0-.42.05-.39.14-.39.45c0,.88,0,1.76,0,2.64v.18c0,.23.12.32.35.33h.3c.19,0,.24.06.24.23s0,.54,0,.81,0,.27-.25.27H265.9c-.22,0-.45,0-.66,0s-.23,0-.23-.22,0-.6,0-.9c0-.12,0-.18.17-.18s.3,0,.45,0,.33-.08.34-.34a.28.28,0,0,0,0-.09c0-.9,0-1.8,0-2.7,0-.33-.11-.45-.44-.47h-.09c-.43,0-.43,0-.43-.45,0-.21,0-.42,0-.63A.13.13,0,0,1,265.05,298.29Z" transform="translate(-225 -286)"/><path class="cls-2" d="M258.26,304.37h-1.53c-.07,0-.13-.07-.19-.11a.56.56,0,0,1-.05-.08c-.27-.49-.45-.57-1-.47l-2.49.48c-.34.07-.66.18-1,.23a8.07,8.07,0,0,1-1,.07h-1.29c-.19,0-.25-.06-.24-.25,0-.54-.11-.55.52-.55a.68.68,0,0,0,.74-.47c.08-.24.22-.47.32-.71a1.23,1.23,0,0,0,.11-.34c0-.25-.05-.35-.3-.35l-1.17,0a.17.17,0,0,1-.19-.18c0-.26,0-.52,0-.78s.12-.1.2-.1h8.58c.14,0,.21.05.19.19s0,.18,0,.27,0,.43-.08.54-.33,0-.51,0l-3.6,0h-.72a.53.53,0,0,0-.5.32,8.33,8.33,0,0,0-.37.94c-.1.29,0,.42.33.36l1.23-.26.93-.2c.32-.06.37-.1.4-.41s.06-.27.27-.26c.47,0,.94,0,1.41,0,.11,0,.21,0,.26.14C257.76,303.06,258,303.67,258.26,304.37Z" transform="translate(-225 -286)"/><path class="cls-2" d="M229.6,297h.57a.23.23,0,0,0,.28-.2,4.48,4.48,0,0,0,.06-.62c0-.16.05-.22.2-.21h.9c.11,0,.16,0,.16.16s0,.3,0,.45a.37.37,0,0,0,.21.38.58.58,0,0,1,.21.78c-.05.09-.16.14-.24.21s-.15.11-.16.17c0,.38-.06.76-.08,1.14a.41.41,0,0,0,.21.4.58.58,0,0,1,.28.59,1.82,1.82,0,0,0,0,.33c0,.17.05.36-.24.35-.13,0-.22.14-.24.28a2.83,2.83,0,0,0-.05.5c0,.89,0,1.78,0,2.67,0,.24,0,.24-.25.25s-.5,0-.75,0-.24-.1-.25-.25a3.84,3.84,0,0,1,0-.48c0-.51,0-1,0-1.55,0-.05-.06-.1-.08-.15s-.13.05-.14.09c-.12.29-.23.58-.32.87-.2.63-.05.49-.67.51h-.6c-.3,0-.3,0-.3-.28v-.06c0-.11,0-.25,0-.33s.19-.06.29-.09a.68.68,0,0,0,.47-.5c.4-1.34.79-2.69,1.19-4a1.16,1.16,0,0,1,0-.18c0-.15,0-.23-.16-.26a1.36,1.36,0,0,0-.29,0H229c-.12,0-.19,0-.18-.16s0-.4,0-.6.06-.17.18-.17h.6Z" transform="translate(-225 -286)"/><path class="cls-2" d="M338.81,292.88a2.29,2.29,0,1,1,2.3,2.23A2.25,2.25,0,0,1,338.81,292.88Z" transform="translate(-225 -286)"/><path class="cls-2" d="M343.42,292.8a2.36,2.36,0,0,1,2.24-2.26,2.29,2.29,0,1,1-2.24,2.26Z" transform="translate(-225 -286)"/><path class="cls-2" d="M243.65,302.85v.86c0,.14-.09.15-.19.17l-1.35.29-2.34.46-.5.08c-.14,0-.19,0-.18-.16s0-.22,0-.33c0-.52,0-.52.52-.64.69-.15.8-.29.8-1s0-1.58,0-2.37c0-.41-.2-.57-.53-.55s-.44,0-.66,0-.14,0-.14-.14,0-.42,0-.63.07-.2.22-.2q2.1,0,4.2,0c.16,0,.24,0,.22.22a2.55,2.55,0,0,0,0,.48c0,.17-.07.22-.23.21h-.66a1.13,1.13,0,0,0-.32.05c-.26.07-.28.11-.29.38,0,.79-.07,1.58-.09,2.37a.66.66,0,0,0,0,.34.36.36,0,0,0,.49.27Z" transform="translate(-225 -286)"/><path class="cls-2" d="M257.24,298.33h-.95a1.86,1.86,0,0,1-1-.29,7.94,7.94,0,0,1-.78-.5.86.86,0,0,0-1.1,0l-.69.43a2.38,2.38,0,0,1-1.35.4c-.53,0-1.06,0-1.59,0-.27,0-.28,0-.28-.28s0-.3,0-.45,0-.22.2-.21a1.22,1.22,0,0,0,.33,0,2.47,2.47,0,0,0,.62-.18l2.4-1.36a.76.76,0,0,1,.39-.1c.4,0,.8,0,1.2,0a.63.63,0,0,1,.3.1,18.48,18.48,0,0,0,2.34,1.39,2.18,2.18,0,0,0,.94.17c.26,0,.26,0,.25.28s0,.42-.08.53-.34,0-.52,0h-.66Z" transform="translate(-225 -286)"/><path class="cls-2" d="M253.94,300h-3.86c-.31,0-.31,0-.3-.32s0-.43.05-.65c.22,0,.43-.05.65-.05H258c.12,0,.18,0,.18.16s0,.44,0,.66-.06.16-.17.15" transform="translate(-225 -286)"/></svg>