<svg id="レイヤー_1のコピー_2" data-name="レイヤー 1のコピー 2" xmlns="http://www.w3.org/2000/svg" viewBox="0 0 51 15.24"><defs><style>.cls-1{fill:none;}.cls-2{fill:#d5514a;}.cls-3{fill:#333;}</style></defs><path class="cls-1" d="M300.5,307.43h-25c-.41,0-.49-.08-.49-.49q0-7.15,0-14.32c0-.35.07-.43.43-.43q25.07,0,50.14,0c.36,0,.43.08.43.43q0,7.2,0,14.38c0,.36-.07.43-.43.43Zm7.62-7.66h0V306c0,.7,0,.7.67.72a9.59,9.59,0,0,1,1.2,0c.53.06.67-.12.67-.65,0-3.51,0-7,0-10.53,0-.74,0-1.48,0-2.21,0-.41-.13-.53-.51-.51a8.66,8.66,0,0,1-1.44,0c-.49,0-.6.15-.59.61C308.13,295.54,308.12,297.66,308.12,299.77Zm-28.4,7.16h3.35a2.31,2.31,0,0,0,.43-.08c-.1-.11-.18-.22-.28-.31l-6.89-5.81a2.16,2.16,0,0,0-.39-.22,2.44,2.44,0,0,0-.07.46c0,1.83,0,3.66,0,5.5,0,.35.09.48.47.47C277.44,306.92,278.58,306.93,279.72,306.93Zm.93-14.24.71.62,6.62,5.62a1.68,1.68,0,0,0,.34.2,1.72,1.72,0,0,0,.08-.38c0-1.82,0-3.64,0-5.45,0-.48-.17-.55-.59-.55-1.56,0-3.12,0-4.67-.06Zm33.94,9.47v-4.24c0-.24,0-.49-.32-.53a2.2,2.2,0,0,0-2.59,2.12c.07,1.68,0,3.35,0,5a2.21,2.21,0,0,0,2.35,2.28c.41,0,.56-.1.55-.53C314.57,304.92,314.59,303.54,314.59,302.16ZM297.32,302h0c0,1.42,0,2.83,0,4.25,0,.38.1.55.51.53s1.11,0,1.67,0c.33,0,.46-.09.46-.44q0-4.31,0-8.61c0-.31-.1-.42-.42-.41-.57,0-1.15,0-1.73,0-.4,0-.51.12-.51.51C297.33,299.25,297.32,300.65,297.32,302Zm3.62,0c0,1.42,0,2.84,0,4.25,0,.39.13.54.52.52s1,0,1.56,0,.57-.13.57-.58c0-2.27,0-4.55,0-6.82a2.21,2.21,0,0,0-2.14-2.07c-.39,0-.51.12-.5.51C301,299.26,300.94,300.65,300.94,302.05Zm-7.11.05h0c0,1.42,0,2.84,0,4.25,0,.37.11.5.48.48.54,0,1.08,0,1.62,0s.58-.1.57-.56c0-2.26,0-4.51,0-6.77a2.27,2.27,0,0,0-2.14-2.15c-.39,0-.52.1-.52.5C293.85,299.27,293.83,300.69,293.83,302.1Zm28.91-.06c0,1.39,0,2.79,0,4.18,0,.38.09.54.5.53a12.31,12.31,0,0,1,1.61.08c.46.05.56-.14.56-.57,0-2.18-.09-4.35,0-6.52a2.43,2.43,0,0,0-2.09-2.37c-.38-.06-.59,0-.58.48C322.75,299.24,322.74,300.64,322.74,302Zm-3.56,0c0,1.42,0,2.83,0,4.25,0,.35.1.5.48.49.53,0,1.07,0,1.61,0,.32,0,.42-.12.42-.42q0-4.24,0-8.49c0-.35-.14-.45-.46-.44a13.53,13.53,0,0,1-1.56,0c-.42,0-.49.15-.49.52C319.19,299.25,319.18,300.63,319.18,302Zm-12,0c0-1.4,0-2.79,0-4.19,0-.4-.13-.51-.52-.5a2.61,2.61,0,0,0-2.15,2.15c0,1.72,0,3.43,0,5.14a2.19,2.19,0,0,0,2.16,2.1c.4,0,.5-.14.49-.52C307.15,304.83,307.16,303.43,307.16,302Zm-14.3,2.22h-.07c0-.9,0-1.79,0-2.68,0-.13-.13-.36-.2-.36a2.08,2.08,0,0,0-1,.11,3,3,0,0,0-.73,4.81,1.71,1.71,0,0,0,1.56.69c.4,0,.5-.17.49-.54C292.85,305.61,292.86,304.94,292.86,304.26Zm22.7-4.8c0,.6,0,1.2,0,1.8,0,.31.09.43.41.43.62,0,1.24,0,1.86,0,.28,0,.39-.1.38-.38,0-.52,0-1,0-1.56a2.41,2.41,0,0,0-2.2-2.4c-.34,0-.47.07-.46.43C315.58,298.35,315.56,298.91,315.56,299.46Zm-23.74-2.1a11.63,11.63,0,0,0-1.32,0c-.12,0-.34.21-.34.32,0,.8,0,1.59.07,2.39,0,0,.2.13.23.11l2.74-2.58c.05-.05.06-.14.09-.2a.83.83,0,0,0-.21-.06ZM318,305.3c0-.34,0-.68,0-1a1.57,1.57,0,0,0-.06-.28.91.91,0,0,0-.3.13c-.72.75-1.43,1.51-2.14,2.27a.82.82,0,0,0-.11.25,1.34,1.34,0,0,0,.27.07h.9C318,306.74,318,306.74,318,305.3Z" transform="translate(-275 -292.2)"/><path class="cls-2" d="M288.31,302.65c0,.64,0,1.28-.07,1.91a2.55,2.55,0,0,1-3.05,2.28,1.36,1.36,0,0,1-.5-.3l-8.49-7.1a.9.9,0,0,1-.36-.76c0-1,.06-2,0-3.05-.05-1.26,1.57-3.1,3.08-2.89a1.38,1.38,0,0,1,.69.26c2.77,2.32,5.52,4.66,8.28,7a1,1,0,0,1,.4.86c0,.6,0,1.2,0,1.8Z" transform="translate(-275 -292.2)"/><path class="cls-3" d="M308.12,299.77c0-2.11,0-4.23,0-6.34,0-.46.1-.65.59-.61a8.65,8.65,0,0,0,1.44,0c.38,0,.53.1.51.51,0,.73,0,1.47,0,2.21,0,3.51,0,7,0,10.53,0,.53-.14.71-.67.65a9.59,9.59,0,0,0-1.2,0c-.67,0-.67,0-.67-.72v-6.22Z" transform="translate(-275 -292.2)"/><path class="cls-2" d="M279.72,306.93c-1.14,0-2.28,0-3.41,0-.38,0-.47-.12-.47-.47,0-1.84,0-3.67,0-5.5a2.44,2.44,0,0,1,.07-.46,2.16,2.16,0,0,1,.39.22l6.89,5.81c.1.09.18.2.28.31a2.31,2.31,0,0,1-.43.08Z" transform="translate(-275 -292.2)"/><path class="cls-2" d="M280.65,292.69h2.49c1.55,0,3.11.06,4.67.06.42,0,.6.07.59.55,0,1.81,0,3.63,0,5.45a1.72,1.72,0,0,1-.08.38,1.68,1.68,0,0,1-.34-.2l-6.62-5.62Z" transform="translate(-275 -292.2)"/><path class="cls-3" d="M314.59,302.16c0,1.38,0,2.76,0,4.13,0,.43-.14.54-.55.53a2.21,2.21,0,0,1-2.35-2.28c0-1.68.05-3.35,0-5a2.2,2.2,0,0,1,2.59-2.12c.36,0,.32.29.32.53Z" transform="translate(-275 -292.2)"/><path class="cls-3" d="M297.32,302c0-1.39,0-2.79,0-4.18,0-.39.11-.53.51-.51.58,0,1.16,0,1.73,0,.32,0,.42.1.42.41q0,4.31,0,8.61c0,.35-.13.45-.46.44-.56,0-1.12,0-1.67,0s-.52-.15-.51-.53c0-1.42,0-2.83,0-4.25Z" transform="translate(-275 -292.2)"/><path class="cls-3" d="M300.94,302.05c0-1.4,0-2.79,0-4.19,0-.39.11-.52.5-.51a2.21,2.21,0,0,1,2.14,2.07c0,2.27,0,4.55,0,6.82,0,.45-.12.62-.57.58s-1,0-1.56,0-.53-.13-.52-.52C301,304.89,300.94,303.47,300.94,302.05Z" transform="translate(-275 -292.2)"/><path class="cls-3" d="M293.83,302.1c0-1.41,0-2.83,0-4.25,0-.4.13-.51.52-.5a2.27,2.27,0,0,1,2.14,2.15c0,2.26,0,4.51,0,6.77,0,.46-.13.59-.57.56s-1.08,0-1.62,0c-.37,0-.49-.11-.48-.48,0-1.41,0-2.83,0-4.25Z" transform="translate(-275 -292.2)"/><path class="cls-3" d="M322.74,302c0-1.4,0-2.8,0-4.19,0-.47.2-.54.58-.48a2.43,2.43,0,0,1,2.09,2.37c-.09,2.17,0,4.34,0,6.52,0,.43-.1.62-.56.57a12.31,12.31,0,0,0-1.61-.08c-.41,0-.5-.15-.5-.53C322.75,304.83,322.74,303.43,322.74,302Z" transform="translate(-275 -292.2)"/><path class="cls-3" d="M319.18,302c0-1.37,0-2.75,0-4.12,0-.37.07-.55.49-.52a13.53,13.53,0,0,0,1.56,0c.32,0,.46.09.46.44q0,4.24,0,8.49c0,.3-.1.42-.42.42-.54,0-1.08,0-1.61,0-.38,0-.48-.14-.48-.49C319.19,304.83,319.18,303.42,319.18,302Z" transform="translate(-275 -292.2)"/><path class="cls-3" d="M307.16,302c0,1.39,0,2.79,0,4.18,0,.38-.09.53-.49.52a2.19,2.19,0,0,1-2.16-2.1c0-1.71,0-3.42,0-5.14a2.61,2.61,0,0,1,2.15-2.15c.39,0,.52.1.52.5C307.14,299.25,307.16,300.64,307.16,302Z" transform="translate(-275 -292.2)"/><path class="cls-3" d="M292.86,306.29c0,.37-.09.5-.49.54a1.71,1.71,0,0,1-1.56-.69,3,3,0,0,1,.73-4.81,2.08,2.08,0,0,1,1-.11c.07,0,.2.23.2.36" transform="translate(-275 -292.2)"/><path class="cls-3" d="M315.56,299.46c0-.55,0-1.11,0-1.67,0-.36.12-.46.46-.43a2.41,2.41,0,0,1,2.2,2.4c0,.52,0,1,0,1.56,0,.28-.1.39-.38.38-.62,0-1.24,0-1.86,0-.32,0-.42-.12-.41-.43C315.57,300.66,315.56,300.06,315.56,299.46Z" transform="translate(-275 -292.2)"/><path class="cls-3" d="M291.82,297.36h1.26a.83.83,0,0,1,.21.06c0,.06,0,.15-.09.2l-2.74,2.58s-.23-.07-.23-.11c0-.8-.07-1.59-.07-2.39,0-.11.22-.31.34-.32A11.63,11.63,0,0,1,291.82,297.36Z" transform="translate(-275 -292.2)"/><path class="cls-3" d="M318,305.3c0,1.44,0,1.44-1.45,1.43h-.9a1.34,1.34,0,0,1-.27-.07.82.82,0,0,1,.11-.25c.71-.76,1.42-1.52,2.14-2.27a.91.91,0,0,1,.3-.13,1.57,1.57,0,0,1,.06.28C318,304.62,318,305,318,305.3Z" transform="translate(-275 -292.2)"/></svg>