<svg id="レイヤー_1" data-name="レイヤー 1" xmlns="http://www.w3.org/2000/svg" viewBox="0 0 175.66 50.3"><path d="M282.58,290.67c-1.27.06-1.89-.5-1.52-1.38.1-.23.23-.44.51-.43s.3.22.33.42c.06.42.28.7.71.6s.19-.48.19-.77c0-.84.83-.78,1.24-.8,1.25-.05,1.41-.73,1.34-1.74s0-1.84,0-2.76-.34-1.12-1.12-.67a26.34,26.34,0,0,1-4.51,2.48.64.64,0,0,0-.42.54,10.82,10.82,0,0,1-1.57,3.6c-.12.2-.47.45-.17.72s.51-.07.75-.19a1.35,1.35,0,0,1,1.09-.28,14.51,14.51,0,0,1-2.94,2.87,1.19,1.19,0,0,1-1.76-1.58c.36-.71.68-1.44,1.11-2.12a6.8,6.8,0,0,0,1.14-4.31c-.16-1.7-.17-3.41-.27-5.12,0-.26,0-.64-.3-.74s-.55.27-.72.51a8.71,8.71,0,0,1-1.92,2c-.34.25-.73.43-1.06,0s-.12-.67.18-1A53.72,53.72,0,0,0,280.46,269a7.76,7.76,0,0,1,.49-.68.77.77,0,0,0,.15-.43,6,6,0,0,0-2.46-1.26.39.39,0,0,1-.6.13c-.82-.54-1.37-.14-2,.41a.79.79,0,0,1-1.18.08c-.4-.35-.35-.64-.16-1.14,1-2.66,2.45-5.19,3.06-8,.12-.54.32-1,.92-1.13s.95.45,1.07.93c.29,1.15,1,1.22,2,1,1.44-.32,2.9-.5,4.36-.76a1.74,1.74,0,0,1,1.89.7c.43.63-.06,1.1-.35,1.62-.84,1.53-1.65,3.09-2.45,4.64-.3.58,0,.77.57.85,1.93.3,3.85.68,5.78.91a79,79,0,0,0,8,.34,4.53,4.53,0,0,1,2.1.65c-1.83,1.07-3.74.7-5.56.86a37.42,37.42,0,0,1-10.82-.65c-1.79-.35-2.4.93-3,2a46.58,46.58,0,0,1-4.39,6.53c-.48.6-.86,1.16.26,1.49.42.12.47.52.53.87.19,1.1.39,2.19.52,3.3s.22,1.24,1.29.63,1.94-1.1,2.92-1.63c.83-.45,1.57-.93,1.1-2.08a2.31,2.31,0,0,1,0-.83c0-.57-.23-1.3.6-1.48s1.24.53,1.42,1.16c.34,1.21,1,1.24,2,.78a26,26,0,0,0,5-2.54,1.43,1.43,0,0,1,2.13.22c.39.89-.21,1.33-.91,1.66-2.05,1-4.09,2-6.16,2.95a1.13,1.13,0,0,0-.77,1.46,28.88,28.88,0,0,1,.09,3.95c0,.73.26,1,1,.87,1-.21,2.12-.38,3.17-.61.73-.17,1.48-.26,1.61.66a1.25,1.25,0,0,1-1.33,1.4,16.9,16.9,0,0,0-3.82.83,1.57,1.57,0,0,0-1.29,1.37,25.26,25.26,0,0,1-1.18,4.52c-.31.71,0,.93.75.73,3.35-.89,6.84-1,10.21-1.77,1.53-.33,3.16,0,4.65-.89a1.94,1.94,0,0,1,2.33.78c.39.56.36,1-.35,1.47-1,.64-2.1.44-3.13.52A75.7,75.7,0,0,0,289.79,298c-3.21.69-6.5,1.12-9.65,2.08a10.62,10.62,0,0,0-1.11.43c-.76.34-1.41.29-1.81-.53a1.37,1.37,0,0,1,1-1.76c1.18-.12,2.2-.7,3.34-.91a2,2,0,0,0,1.85-2.8c-.33-1.28-.42-2.6-.83-3.84.76.55.93,1.6,2,2.36-.21-1,.7-1.88.13-2.51C284.25,290.05,283.28,290.48,282.58,290.67Zm2.11-29.62c-.08-.64-.6-.54-1-.45a14.52,14.52,0,0,1-3.77.51c-.66,0-1.89,2.23-1.64,2.86.18.47,4,1.5,4.3,1.11A22.63,22.63,0,0,0,284.69,261.05Z" transform="translate(-162.47 -254.48)"/><path d="M237.15,266.56c-2.7.27-5.74.26-8.68,1.13l-.11,0c-.71.2-1.7-.37-2.12.4s-.15,2-.06,2.95c.06.67.33,1.31.38,2,.06.95,1,1.07,1.59,1.22,3.81,1,7,3.4,10.77,4.57a27,27,0,0,1,2.69,1c.63.27,1.29.68,1.31,1.42s-.68,1-1.25,1.32c-.42.23-.76.31-.9-.28a1.27,1.27,0,0,0-1-.88,69,69,0,0,1-9.69-4c-.65-.3-1.36-.5-2-.85-.9-.5-1.2-.28-1.15.72.12,2.47.61,4.91.57,7.39,0,.73.44.69,1,.53,1.46-.43,2.82-1.12,4.22-1.68,1-.4,2-.77,3-1.11.32-.11.79-.26.93.19.1.3-.28.57-.54.71-2,1.06-4.11,2.08-6.17,3.12a11.87,11.87,0,0,1-1.08.52c-1.09.4-1.29,1.21-1.21,2.28a82.5,82.5,0,0,1,0,10.78,9.44,9.44,0,0,0,.22,3.09,1.26,1.26,0,0,1-.65,1.52,1,1,0,0,1-1.39-.32c-1.41-1.85-2.7-3.76-2.18-6.28a3.86,3.86,0,0,0-.4-2.2,6.17,6.17,0,0,1-.47-3.39c0-.25,0-.63.43-.61s.37.29.41.53a41,41,0,0,0,1.09,5.62c.12.4-1.06,1,.08,1.1,1,.08.54-1,.54-1.37a71.35,71.35,0,0,0,0-8c-.06-.63-.37-.85-.83-.46-1.23,1-2.77,1.42-4.12,2.18-.47.27-1.14.36-1.43-.1a1.09,1.09,0,0,1,.46-1.54c1.47-.87,2.94-1.74,4.48-2.47a1.78,1.78,0,0,0,1.27-2c-.18-2-.25-4-.37-5.95,0-.27,0-.62-.33-.68s-.44.25-.56.51a57.54,57.54,0,0,1-5.14,8.86,24.07,24.07,0,0,0-2.54,3.76c-.34.74-.93,1.15-1.74.71s-.52-1.24-.12-1.84c1.14-1.73,2.44-3.36,3.49-5.14,2.27-3.83,4.63-7.63,5.88-12,.43-1.49-.07-3-.12-4.5,0-.57-.5-.37-.83-.32a34,34,0,0,0-5.54,1.46c-.86.29-1.9.14-2.54,1.1-.25.37-3.56-.13-3.93-.49a1.07,1.07,0,0,1-.38-1.18,1.17,1.17,0,0,1,1.11-.79c3.76-.2,7.31-1.45,11-2.24.92-.2,1.14-.74.82-1.59a2.89,2.89,0,0,1-.4-1.12,1.23,1.23,0,0,1,1-1.33,1.15,1.15,0,0,1,1.37.7,2.84,2.84,0,0,1,.32,1.15c0,1.39.87,1.44,1.82,1.26,2.82-.56,5.7-.65,8.54-1a17,17,0,0,1,3.11,0c.61,0,1.24.25,1.16,1.07s-.67,1-1.39.92C238.34,266.62,237.91,266.61,237.15,266.56Z" transform="translate(-162.47 -254.48)"/><path d="M335.16,296.87a8.75,8.75,0,0,0,.46-4.36,37.71,37.71,0,0,1-.46-8.69A49.55,49.55,0,0,0,334,270.64a37.6,37.6,0,0,1-.74-6.76c0-2.11-.48-4.19-.28-6.31.06-.62-.27-.81-.89-.77a51,51,0,0,0-5.64,1.07,84.44,84.44,0,0,0-9,2.24,20.67,20.67,0,0,1-5.23,1,1.22,1.22,0,0,1-1.35-.92c-.22-.75.41-.9.94-1.12a27.39,27.39,0,0,1,4.79-1.23c2.59-.6,5.21-1.12,7.82-1.63,3.31-.65,6.57-1.67,10-1.72a3.81,3.81,0,0,1,1.07.1c.69.22,1.08.91.66,1.39-.89,1-.66,2.1-.6,3.16a93,93,0,0,0,1.17,12,43.89,43.89,0,0,1,1,11,37.67,37.67,0,0,0,.18,8.49,13.94,13.94,0,0,1,0,5.46c-.31,1.31-.69,2.61-1.1,3.9a1.18,1.18,0,0,1-1.94.48,1.91,1.91,0,0,1-.59-.88c-.37-1.67-1.57-2.93-2.13-4.5-.39-1.07-1.72-1.47-1.94-2.67-.06-.31-.56-.69,0-.89s.41.37.56.67c.5.94.78,2,2.22,2.21C333.85,294.59,334.34,295.85,335.16,296.87Z" transform="translate(-162.47 -254.48)"/><path d="M173.35,290.06a27.14,27.14,0,0,0-.41-5.47,10,10,0,0,1,0-3.57c.12-.74-.3-1.16-.81-1.1s-.76.13-.92-.35a1.14,1.14,0,0,1,.34-1.3,1.45,1.45,0,0,1,2.24.48,9.3,9.3,0,0,1,1.33,5.12c.11,3,.19,6,.25,9,0,.68.29.56.74.43a33.18,33.18,0,0,0,4.4-1.83,56.81,56.81,0,0,0,8.6-4.85c.69-.48.68-.71.17-1.23s-.91-1.09-1.42-1.59-.63-1-.18-1.46a1.16,1.16,0,0,1,1.71-.24,18.88,18.88,0,0,1,2.31,2.06c2.16,2.4,4.26,4.84,6.36,7.29a13.18,13.18,0,0,0,2.54,2.52c.23.15.51.34.41.66s-.44.31-.72.33c-1.25.08-2-.81-2.92-1.45a47.27,47.27,0,0,1-5.4-5.19,1,1,0,0,0-1.4-.23c-3.24,1.78-6.25,3.95-9.68,5.41-2.33,1-4.61,2.23-7,3s-4.51,1.5-6.73,2.36c-.93.35-1.83.79-2.76,1.15a1.33,1.33,0,0,1-2-1.28,18.78,18.78,0,0,1,.43-4.16c.38-2.56.54-5.14.75-7.72a14,14,0,0,0,0-3.54c-.1-.61.08-1.15.79-1.26a1.25,1.25,0,0,1,1.47.75,3.12,3.12,0,0,1,.16,1.42,81.44,81.44,0,0,1-1.17,11.87c-.17.92,0,1.2.94.84,2.09-.79,4.24-1.39,6.29-2.29a1.82,1.82,0,0,0,1.2-2.07C173.29,291.75,173.35,290.9,173.35,290.06Z" transform="translate(-162.47 -254.48)"/><path d="M269.14,260.47c1.05,0,1.52,1.07,1,2.1-1.3,2.38-2.55,4.79-3.89,7.15-.5.88-.29,1.15.65,1.32,1.61.28,3.27.06,4.84.65s2,1.2,1.57,2.81c-.63,2.61-.93,5.34-2.55,7.63-.86,1.2-1.68,2.43-2.51,3.65-.21.31-.48.66-.83.62-1.25-.13-1.18.73-1.18,1.5,0,1.48-.55,3-.42,4.37a14,14,0,0,1-.55,4.26,2.85,2.85,0,0,1-.39,1,1,1,0,0,1-1.36.45,1.09,1.09,0,0,1-.61-1.38,49.66,49.66,0,0,0,1-12.93c-.22-3.19,0-6.38,0-9.56a3.47,3.47,0,0,0-.24-1.53,3,3,0,0,1,.41-3.37c.92-1.23,1.27-2.87,2.68-3.75a.52.52,0,0,0,.1-.76c-.26-.41-.57-.1-.82,0-2.12,1.25-4.23,2.52-6.35,3.78a18.93,18.93,0,0,1-3.57,1.65,1.55,1.55,0,0,1-1.68-.26.89.89,0,0,1,.28-1.54c3.37-1.17,6.35-3.14,9.51-4.71a27.19,27.19,0,0,0,3.78-2.7A2.12,2.12,0,0,1,269.14,260.47Zm-2.95,18.71a6.63,6.63,0,0,0,.58,3.24c.34.63.54.67,1,.11a15.35,15.35,0,0,0,3-8c.07-.66-.1-1-.81-1a13.61,13.61,0,0,1-2.85-.17c-.68-.14-.92.2-.91.86C266.21,275.87,266.19,277.52,266.19,279.18Zm-.71-5.58a.56.56,0,0,0-.59-.63c-.27,0-.65,0-.68.3s.27.63.67.72A.45.45,0,0,0,265.48,273.6Z" transform="translate(-162.47 -254.48)"/><path d="M326.93,280.45a6.67,6.67,0,0,1-.54,3c-.34.65,0,.8.58.65.43-.1,1-.27,1.13.26s-.36.86-.85,1c-2.19.56-3.32,2.23-4.25,4.08-.41.81-.95,1.37-1.86,1.1s-1-.93-.77-1.75c.15-.56-.19-.72-.7-.56-.79.26-1.58.54-2.38.78a1.62,1.62,0,0,1-1.69-.11c-.52-.42-1-.24-1,.53a1.43,1.43,0,0,1-1.3,1.69c-.89.14-1.3-.49-1.6-1.16-.76-1.71-1.5-3.42-2.19-5.15A2.66,2.66,0,0,1,310.7,282c.5-.27,1.18-.2,1.31.13.49,1.22,1,.56,1.62.19a38.32,38.32,0,0,1,8.93-3.63,19.27,19.27,0,0,1,2.38-.73c1.68-.25,1.84-.18,2,1.55C327,279.82,326.93,280.14,326.93,280.45Zm-12.73,7.4.56-.12,7.56-2.25a1.48,1.48,0,0,0,1-.84c.46-1.15.84-2.32,1.2-3.5.2-.62-.13-.93-.75-.85a4.87,4.87,0,0,0-1,.31,53.59,53.59,0,0,0-8.32,3.57c-.53.29-.95.52-1.31-.23a.42.42,0,0,0-.78,0,1.19,1.19,0,0,0,.14,1.46C313.12,286.15,313,287.51,314.2,287.85Z" transform="translate(-162.47 -254.48)"/><path d="M313,271.67a39.8,39.8,0,0,0,7.76-1,12.2,12.2,0,0,1,2.62-.14c.32,0,.56.14.57.48a.57.57,0,0,1-.49.59c-2.62.66-5.24,1.33-7.87,2a3.07,3.07,0,0,1-2.09-.37c-.52-.25-.93-.5-1.35.24-.3.54-.79.07-1.07-.16a.71.71,0,0,1,.08-1.22A1.83,1.83,0,0,1,313,271.67Z" transform="translate(-162.47 -254.48)"/></svg>